<?xml version="1.0" encoding="UTF-8" standalone="no"?>
<svg
   version="1.2"
   viewBox="0 0 945 330"
   width="945"
   height="330"
   id="svg24"
   xmlns="http://www.w3.org/2000/svg"
   xmlns:svg="http://www.w3.org/2000/svg">
  <defs
     id="defs24" />
  <style
     id="style1">.a{fill:#ce1422}.b{fill:#fff}</style>
  <g
     id="g26">
    <path
       d="m 203.6,1 v 92.9 c -0.4,-3.9 -1,-7.6 -1.7,-10.9 -2,-9.8 -5,-19.3 -9.1,-28.6 C 184.6,36.9 172.4,23.1 156.1,13.2 146.9,7.6 137,3.5 126.4,1.1 h 77.2 z"
       id="path26"
       style="fill:#ce1422;fill-opacity:1" />
    <path
       d="M 126.1,212.7 H 1 v -94.1 c 3.7,19.4 12.9,36.4 27.6,50.9 19.7,19.4 43.7,29.1 72.2,29.1 l 13.7,-0.6 v -79.7 c -2.4,0.9 -4.6,1.6 -6.5,2 -14.6,3.4 -28.2,-7 -28.2,-21.6 0,-6.2 2.2,-11.5 6.7,-15.9 9.1,-8.9 27,-9.4 34.2,2.2 3.6,5.8 5.4,16 5.4,30.5 z"
       id="path25"
       style="fill:#ce1422;fill-opacity:1" />
    <path
       d="M 1,78.6 C 2.3,72.3 4.2,66.1 6.7,60.1 11.7,48 19.1,37.2 28.6,28.1 38.3,18.4 49.4,11.1 61.8,6 q 7.4,-3 15,-4.8 H 1 Z"
       id="path1"
       style="fill:#ce1422;fill-opacity:1" />
  </g>
  <path
     class="b"
     d="M 318.6,212.9 H 287.9 V 180 c 0,-7.8 -0.9,-13.2 -2.8,-16.3 -1.9,-3.1 -5,-4.6 -9.4,-4.6 -3.3,0 -6.1,1.1 -8.5,3.5 -2.3,2.3 -3.5,5.1 -3.5,8.5 0,3.3 1.1,6.1 3.4,8.5 2.3,2.3 5.1,3.3 8.5,3.3 0.8,0 1.8,-0.1 2.8,-0.3 1,-0.2 2.1,-0.6 3.4,-1.1 v 31.9 l -0.6,0.1 c -2.8,0.2 -4.9,0.2 -6,0.2 -11.9,0 -21.9,-4.1 -30.1,-12.3 Q 232.8,189 232.8,171.1 c 0,-5.7 1.1,-11.1 3.1,-16.2 2.1,-5.2 5.2,-9.7 9.1,-13.6 4,-4.1 8.7,-7.2 13.9,-9.4 5.2,-2.2 10.7,-3.2 16.4,-3.2 8.5,0 16.1,2.1 22.9,6.3 6.8,4.2 11.9,10 15.3,17.5 1.7,3.9 3,8 3.8,12.1 0.8,4.2 1.2,9.3 1.2,15.5 v 6 26.7 z m 12.7,-34.3 c 0,-5.6 0.1,-9.9 0.4,-12.8 0.3,-3 0.8,-5.7 1.4,-8.4 2.4,-9.1 6.6,-16.2 12.7,-21.2 6.1,-5 13.6,-7.6 22.3,-7.6 6.1,0 11.7,1.4 16.9,4.1 5.1,2.7 9.4,6.6 12.8,11.7 2.6,3.9 4.5,8.3 5.7,13.1 1.2,4.8 1.7,11.8 1.7,21.1 v 34.3 h -31.4 v -38.8 c 0,-4.3 -0.5,-7.2 -1.4,-8.8 -0.9,-1.5 -2.4,-2.3 -4.6,-2.3 -2.2,0 -3.7,0.8 -4.6,2.4 -0.9,1.6 -1.4,4.5 -1.4,8.7 V 213 h -30.6 v -34.4 z m 136.4,-17.9 h -18.4 c -0.1,0.4 -0.2,0.8 -0.2,1.2 0,0.4 0,10.8 0,11.6 0,4.4 1,7.8 3,10.1 2,2.3 4.9,3.4 8.9,3.4 h 6.8 v 28.1 c -0.5,0.1 -1.1,0.2 -1.7,0.2 -0.6,0 -6.3,0 -7.6,0 -12,0 -24,-1.1 -31.6,-9.3 -7.5,-8.2 -9,-22 -9,-35.2 v -60.7 h 31.5 V 131 h 18.4 v 29.7 z m 42.4,52.2 h -30.6 v -82 h 30.6 z M 496.9,122.7 H 482 l 13.8,-28.5 h 22.6 z M 522.8,250 v -69.2 c 0,-5.1 0.2,-9.2 0.5,-12.2 0.3,-3.1 1,-5.9 1.8,-8.5 q 4.2,-14.7 15,-23.1 c 11.8,-9 26.3,-10.7 39.9,-5.1 5.2,2.1 9.9,5.3 14,9.4 3.9,3.9 6.9,8.5 9,13.6 2.1,5.1 3.2,10.5 3.2,16.2 q 0,17.9 -12.3,30.3 c -8.2,8.3 -15.8,12.4 -27.7,12.4 -1.3,0 -3.3,0.2 -6,-0.2 l -0.6,-0.1 v -31.9 c 1.2,0.5 2.3,0.9 3.3,1.1 1,0.2 1.9,0.3 2.8,0.3 3.4,0 6.2,-1.1 8.5,-3.4 2.3,-2.3 3.4,-5.1 3.4,-8.5 0,-3.3 -1.2,-6.1 -3.5,-8.5 -2.3,-2.3 -5.1,-3.5 -8.4,-3.5 -4.4,0 -7.6,1.5 -9.5,4.6 -1.9,3.2 -2.8,8.5 -2.8,16.3 v 70 z m 89.9,-78 c 0,-4.1 0.6,-8.3 1.9,-12.3 q 1.8,-6 5.4,-11.4 6.1,-9.3 15.6,-14.4 9.4,-5.1 20.4,-5.1 c 5.6,0 11.1,1.1 16.4,3.4 5.3,2.2 10,5.4 14.2,9.6 4.1,4.1 7.3,8.7 9.5,14 2.2,5.2 3.3,10.7 3.3,16.4 q 0,8.7 -3.3,16.5 c -2.2,5.2 -5.3,9.8 -9.5,14 -4.1,4.1 -8.8,7.2 -14.1,9.3 q -8,3.4 -16.5,3.4 -8.7,0 -16.5,-3.4 c -5.2,-2.1 -9.8,-5.3 -14,-9.5 -4.2,-4.1 -7.3,-8.8 -9.5,-14 q -3.3,-7.7 -3.3,-16.5 z m 32,0 q 0,4.7 3.3,7.9 c 2.2,2.1 4.8,3.3 7.9,3.3 3,0 5.6,-1.2 7.9,-3.3 q 3.3,-3.4 3.3,-7.9 c 0,-3.1 -1.1,-5.6 -3.3,-8 -2.2,-2.1 -4.9,-3.3 -7.9,-3.3 -3.1,0 -5.8,1.2 -7.9,3.3 -2.2,2.2 -3.3,4.9 -3.3,8 z m 146.6,-71.4 v 63.1 c 0,4.9 -0.2,8.7 -0.5,11.5 -0.3,2.9 -0.9,5.5 -1.6,8 -2.9,10 -7.9,17.9 -15.2,23.7 -7.3,5.7 -15.9,8.5 -25.8,8.5 -5.7,0 -11.2,-1.2 -16.4,-3.3 -5.2,-2.2 -9.8,-5.4 -13.9,-9.7 -4,-4 -7,-8.7 -9.1,-13.8 -2.1,-5.2 -3.1,-10.7 -3.1,-16.4 q 0,-18.3 12.3,-30.9 c 8.2,-8.4 18.2,-12.6 30.1,-12.6 1.2,0 3.2,0.1 6.1,0.3 h 0.5 v 32.6 c -1.5,-0.6 -2.8,-1.1 -3.7,-1.3 -0.9,-0.3 -1.7,-0.3 -2.3,-0.3 -3.5,0 -6.4,1.2 -8.7,3.5 -2.3,2.3 -3.4,5.3 -3.4,8.8 0,3.3 1.2,6.1 3.5,8.5 q 3.6,3.6 8.4,3.6 c 4.4,0 7.5,-1.6 9.4,-4.7 1.9,-3.1 2.8,-8.7 2.8,-16.7 v -62.1 h 30.6 z m 92.3,112.3 H 852.9 V 180 c 0,-7.8 -0.9,-13.2 -2.8,-16.3 -1.9,-3.1 -5,-4.6 -9.4,-4.6 -3.3,0 -6.1,1.2 -8.5,3.5 -2.3,2.3 -3.5,5.2 -3.5,8.5 0,3.4 1.1,6.2 3.4,8.5 2.3,2.3 5.1,3.4 8.5,3.4 0.8,0 1.8,-0.1 2.8,-0.3 1,-0.2 2.1,-0.6 3.4,-1.1 v 31.8 l -0.6,0.2 c -2.8,0.1 -4.9,0.1 -6,0.1 -11.9,0 -21.9,-4.1 -30.1,-12.3 Q 797.8,189 797.8,171.1 c 0,-5.7 1,-11.1 3.2,-16.2 2.1,-5.2 5.1,-9.7 9.1,-13.6 4,-4.1 8.7,-7.2 13.9,-9.4 5.2,-2.2 10.7,-3.2 16.4,-3.2 8.5,0 16.1,2.1 22.9,6.3 6.8,4.2 11.9,10 15.3,17.5 1.7,3.9 3,8 3.8,12.1 0.8,4.2 1.2,9.3 1.2,15.5 v 6 z"
     id="path2" />
  <path
     class="b"
     d="m 907.3,107 c 0,-7.3 -5.9,-13.2 -13.2,-13.2 -7.3,0 -13.2,5.9 -13.2,13.2 0,7.3 5.9,13.2 13.2,13.2 7.3,0 13.2,-5.9 13.2,-13.2 z m -2.2,0 c 0,6 -4.9,10.9 -10.9,10.9 -6,0 -10.9,-4.9 -10.9,-10.9 0,-6 4.9,-10.9 10.9,-10.9 6,0 10.9,4.9 10.9,10.9 z m -6.3,2.5 c -0.3,-0.9 -0.7,-1.5 -1.2,-1.9 q 0.9,-0.5 1.5,-1.2 c 0.4,-0.5 0.5,-1.2 0.5,-1.9 0,-0.2 0,-0.5 -0.1,-0.7 -0.1,-0.2 -0.1,-0.5 -0.2,-0.7 -0.1,-0.2 -0.2,-0.4 -0.4,-0.7 -0.1,-0.2 -0.3,-0.4 -0.5,-0.6 -0.2,-0.2 -0.5,-0.3 -0.7,-0.4 -0.2,-0.1 -0.5,-0.2 -0.8,-0.3 -0.3,0 -0.5,-0.1 -0.8,-0.1 q -0.4,0 -0.9,0 h -5.4 v 12 h 2.2 v -4.8 h 2.4 c 0.3,0 0.5,0 0.7,0.1 q 0.3,0.2 0.6,0.3 c 0.2,0.2 0.4,0.4 0.5,0.5 q 0.2,0.3 0.3,0.6 l 1.2,3.3 h 2.4 z m -1.6,-5 c 0,0.3 0,0.6 -0.1,0.8 -0.1,0.2 -0.2,0.4 -0.4,0.5 -0.2,0.1 -0.4,0.2 -0.7,0.3 -0.3,0 -0.6,0.1 -1,0.1 h -3 V 103 h 3.2 c 0.7,0 1.2,0.1 1.5,0.5 0.4,0 0.5,0.5 0.5,1 z"
     id="path3" />
  <path
     class="b"
     d="m 240.9,299.4 c 0.1,7.9 5.2,11.2 11,11.2 4.2,0 6.7,-0.7 8.9,-1.7 l 1,4.2 c -2,0.9 -5.6,2 -10.6,2 -9.9,0 -15.7,-6.5 -15.7,-16.1 0,-9.7 5.7,-17.3 15,-17.3 10.4,0 13.2,9.1 13.2,15.1 0,1.2 -0.1,2.1 -0.2,2.7 z m 17.1,-4.2 c 0.1,-3.7 -1.5,-9.5 -8.1,-9.5 -5.9,0 -8.5,5.4 -8.9,9.5 z"
     id="path4" />
  <path
     class="b"
     d="m 270.8,291.1 c 0,-3.4 -0.1,-6.1 -0.3,-8.8 l 5.2,0.1 0.3,5.3 h 0.1 c 1.6,-3 5.3,-6 10.6,-6 4.4,0 11.3,2.6 11.3,13.6 v 19.1 h -5.8 V 296 c 0,-5.2 -1.9,-9.5 -7.4,-9.5 -3.8,0 -6.8,2.7 -7.8,5.9 -0.3,0.7 -0.4,1.7 -0.4,2.7 v 19.2 h -5.8 z"
     id="path5" />
  <path
     class="b"
     d="m 335.1,282.4 c -0.1,2.4 -0.3,4.9 -0.3,8.9 v 18.6 c 0,7.3 -1.5,11.8 -4.6,14.6 -3.1,2.9 -7.6,3.8 -11.6,3.8 -3.8,0 -8.1,-0.9 -10.6,-2.6 l 1.5,-4.4 c 2.1,1.3 5.4,2.5 9.4,2.5 5.9,0 10.3,-3.1 10.3,-11.2 V 309 h -0.1 c -1.8,3 -5.2,5.4 -10.2,5.4 -7.9,0 -13.6,-6.7 -13.6,-15.6 0,-10.8 7.1,-17 14.4,-17 5.6,0 8.6,2.8 10,5.6 h 0.1 l 0.3,-4.8 h 5 z m -6,12.6 c 0,-1 -0.1,-1.8 -0.3,-2.6 -1.1,-3.4 -3.9,-6.1 -8.1,-6.1 -5.6,0 -9.5,4.6 -9.5,12.1 0,6.3 3.2,11.5 9.5,11.5 3.6,0 6.8,-2.3 8.1,-6 0.3,-1 0.5,-2.1 0.5,-3.1 V 295 Z"
     id="path6" />
  <path
     class="b"
     d="m 351,273.4 c 0.1,2.1 -1.4,3.7 -3.7,3.7 -2,0 -3.5,-1.6 -3.5,-3.6 0,-2 1.5,-3.7 3.6,-3.7 2.2,-0.1 3.6,1.5 3.6,3.7 z m -6.5,41 v -32 h 5.8 v 32 z"
     id="path7" />
  <path
     class="b"
     d="m 360,291.1 c 0,-3.4 -0.1,-6.1 -0.3,-8.8 l 5.2,0.1 0.3,5.3 h 0.1 c 1.6,-3 5.3,-6 10.6,-6 4.4,0 11.3,2.6 11.3,13.6 v 19.1 h -5.8 V 296 c 0,-5.2 -1.9,-9.5 -7.4,-9.5 -3.8,0 -6.8,2.7 -7.8,5.9 -0.3,0.7 -0.4,1.7 -0.4,2.7 v 19.2 H 360 Z"
     id="path8" />
  <path
     class="b"
     d="m 399.9,299.4 c 0.1,7.9 5.2,11.2 11,11.2 4.2,0 6.7,-0.7 8.9,-1.7 l 1,4.2 c -2,0.9 -5.6,2 -10.6,2 -9.9,0 -15.7,-6.5 -15.7,-16.1 0,-9.7 5.7,-17.3 15,-17.3 10.4,0 13.2,9.1 13.2,15.1 0,1.2 -0.1,2.1 -0.2,2.7 z m 17.1,-4.2 c 0.1,-3.7 -1.5,-9.5 -8.1,-9.5 -5.9,0 -8.5,5.4 -8.9,9.5 z"
     id="path9" />
  <path
     class="b"
     d="m 433.1,299.4 c 0.1,7.9 5.2,11.2 11,11.2 4.2,0 6.7,-0.7 8.9,-1.7 l 1,4.2 c -2,0.9 -5.6,2 -10.6,2 -9.9,0 -15.7,-6.5 -15.7,-16.1 0,-9.7 5.7,-17.3 15,-17.3 10.4,0 13.2,9.1 13.2,15.1 0,1.2 -0.1,2.1 -0.2,2.7 z m 17,-4.2 c 0.1,-3.7 -1.5,-9.5 -8.1,-9.5 -5.9,0 -8.5,5.4 -8.9,9.5 z"
     id="path10" />
  <path
     class="b"
     d="m 463,292.4 c 0,-3.8 -0.1,-7 -0.3,-10 h 5.1 l 0.2,6.3 h 0.3 c 1.5,-4.3 5,-7 8.9,-7 0.7,0 1.1,0.1 1.7,0.2 v 5.5 c -0.6,-0.1 -1.2,-0.2 -2,-0.2 -4.1,0 -7,3.1 -7.8,7.5 -0.1,0.8 -0.3,1.7 -0.3,2.7 v 17.1 H 463 Z"
     id="path11" />
  <path
     class="b"
     d="m 487.8,299.4 c 0.1,7.9 5.2,11.2 11,11.2 4.2,0 6.7,-0.7 8.9,-1.7 l 1,4.2 c -2,0.9 -5.6,2 -10.6,2 -9.9,0 -15.7,-6.5 -15.7,-16.1 0,-9.7 5.7,-17.3 15,-17.3 10.4,0 13.2,9.1 13.2,15.1 0,1.2 -0.1,2.1 -0.2,2.7 z m 17.1,-4.2 c 0.1,-3.7 -1.5,-9.5 -8.1,-9.5 -5.9,0 -8.5,5.4 -8.9,9.5 z"
     id="path12" />
  <path
     class="b"
     d="m 545.4,267.4 v 38.8 c 0,2.8 0.1,6.1 0.3,8.3 h -5.2 l -0.3,-5.7 h -0.1 c -1.8,3.7 -5.7,6.4 -10.9,6.4 -7.7,0 -13.7,-6.5 -13.7,-16.4 -0.1,-10.6 6.5,-17.1 14.3,-17.1 4.9,0 8.2,2.3 9.7,4.8 h 0.1 v -19.1 z m -5.9,28 c 0,-0.7 -0.1,-1.7 -0.3,-2.4 -0.9,-3.7 -4,-6.7 -8.4,-6.7 -6,0 -9.6,5.4 -9.6,12.4 0,6.5 3.2,11.8 9.5,11.8 3.9,0 7.5,-2.6 8.5,-6.8 0.2,-0.9 0.3,-1.7 0.3,-2.5 z"
     id="path13" />
  <path
     class="b"
     d="m 576.1,273.3 v 9.1 h 8.3 v 4.4 h -8.3 v 17.3 c 0,3.9 1.1,6.1 4.4,6.1 1.5,0 2.6,-0.2 3.4,-0.3 l 0.3,4.3 c -1.1,0.5 -2.9,0.8 -5.2,0.8 -2.7,0 -4.9,-0.8 -6.3,-2.3 -1.7,-1.7 -2.2,-4.7 -2.2,-8.3 v -17.5 h -5 v -4.4 h 5 v -7.7 z"
     id="path14" />
  <path
     class="b"
     d="m 619.9,298.2 c 0,11.8 -8.2,17 -15.9,17 -8.7,0 -15.3,-6.3 -15.3,-16.5 0,-10.7 7,-17 15.9,-17 9.1,0 15.3,6.7 15.3,16.5 z m -25.4,0.3 c 0,7 4,12.3 9.7,12.3 5.6,0 9.7,-5.2 9.7,-12.4 0,-5.4 -2.7,-12.3 -9.6,-12.3 -6.9,0 -9.8,6.3 -9.8,12.4 z"
     id="path15" />
  <path
     class="b"
     d="m 647.6,282.4 7,18.9 c 0.7,2.2 1.5,4.7 2,6.5 h 0.1 c 0.6,-1.8 1.3,-4.3 2.1,-6.6 l 6.3,-18.9 h 6.1 l -8.7,22.9 c -4.2,11 -7,16.6 -11,20 -2.8,2.5 -5.7,3.5 -7.1,3.8 l -1.5,-4.9 c 1.5,-0.5 3.4,-1.4 5.1,-2.8 1.6,-1.3 3.6,-3.5 4.9,-6.5 0.3,-0.6 0.5,-1.1 0.5,-1.4 0,-0.3 -0.1,-0.8 -0.4,-1.5 l -11.8,-29.5 z"
     id="path16" />
  <path
     class="b"
     d="m 705.6,298.2 c 0,11.8 -8.2,17 -15.9,17 -8.7,0 -15.3,-6.3 -15.3,-16.5 0,-10.7 7,-17 15.9,-17 9,0 15.3,6.7 15.3,16.5 z m -25.4,0.3 c 0,7 4,12.3 9.7,12.3 5.6,0 9.7,-5.2 9.7,-12.4 0,-5.4 -2.7,-12.3 -9.6,-12.3 -6.9,0 -9.8,6.3 -9.8,12.4 z"
     id="path17" />
  <path
     class="b"
     d="m 739.7,305.7 q 0,4.9 0.3,8.7 h -5.2 l -0.3,-5.2 h -0.1 c -1.5,2.6 -4.9,5.9 -10.6,5.9 -5,0 -11,-2.8 -11,-14 v -18.7 h 5.8 v 17.7 c 0,6.1 1.8,10.2 7.1,10.2 3.9,0 6.6,-2.7 7.7,-5.3 0.3,-0.9 0.5,-1.9 0.5,-3 v -19.7 h 5.8 z"
     id="path18" />
  <path
     class="b"
     d="m 749.4,292.4 c 0,-3.8 -0.1,-7 -0.3,-10 h 5.1 l 0.2,6.3 h 0.3 c 1.5,-4.3 5,-7 8.9,-7 0.7,0 1.1,0.1 1.7,0.2 v 5.5 c -0.6,-0.1 -1.2,-0.2 -2,-0.2 -4.1,0 -7,3.1 -7.8,7.5 -0.1,0.8 -0.3,1.7 -0.3,2.7 v 17.1 h -5.8 z"
     id="path19" />
  <path
     class="b"
     d="m 785,291.1 c 0,-3.4 -0.1,-6.1 -0.3,-8.8 l 5.2,0.1 0.3,5.3 h 0.1 c 1.6,-3 5.3,-6 10.6,-6 4.4,0 11.3,2.6 11.3,13.6 v 19.1 h -5.8 V 296 c 0,-5.2 -1.9,-9.5 -7.4,-9.5 -3.8,0 -6.8,2.7 -7.8,5.9 -0.3,0.7 -0.4,1.7 -0.4,2.7 v 19.2 H 785 Z"
     id="path20" />
  <path
     class="b"
     d="m 825,299.4 c 0.1,7.9 5.2,11.2 11,11.2 4.2,0 6.7,-0.7 8.9,-1.7 l 1,4.2 c -2,0.9 -5.6,2 -10.6,2 -9.8,0 -15.7,-6.5 -15.7,-16.1 0,-9.7 5.7,-17.3 15,-17.3 10.4,0 13.2,9.1 13.2,15.1 0,1.2 -0.1,2.1 -0.2,2.7 z m 17,-4.2 c 0.1,-3.7 -1.5,-9.5 -8.1,-9.5 -5.9,0 -8.5,5.4 -8.9,9.5 z"
     id="path21" />
  <path
     class="b"
     d="m 858.1,299.4 c 0.1,7.9 5.2,11.2 11,11.2 4.2,0 6.7,-0.7 8.9,-1.7 l 1,4.2 c -2,0.9 -5.6,2 -10.6,2 -9.8,0 -15.7,-6.5 -15.7,-16.1 0,-9.7 5.7,-17.3 15,-17.3 10.4,0 13.2,9.1 13.2,15.1 0,1.2 -0.1,2.1 -0.2,2.7 z m 17,-4.2 c 0.1,-3.7 -1.5,-9.5 -8.1,-9.5 -5.9,0 -8.5,5.4 -8.9,9.5 z"
     id="path22" />
  <path
     class="b"
     d="m 915.6,267.4 v 38.8 c 0,2.8 0.1,6.1 0.3,8.3 h -5.2 l -0.3,-5.7 h -0.1 c -1.8,3.7 -5.7,6.4 -10.9,6.4 -7.7,0 -13.7,-6.5 -13.7,-16.4 -0.1,-10.6 6.5,-17.1 14.3,-17.1 4.9,0 8.2,2.3 9.7,4.8 h 0.1 v -19.1 z m -5.8,28 c 0,-0.7 -0.1,-1.7 -0.3,-2.4 -0.9,-3.7 -4,-6.7 -8.4,-6.7 -6,0 -9.6,5.4 -9.6,12.4 0,6.5 3.2,11.8 9.5,11.8 3.9,0 7.5,-2.6 8.5,-6.8 0.2,-0.9 0.3,-1.7 0.3,-2.5 z"
     id="path23" />
  <path
     class="b"
     d="m 924.5,308.4 c 1.7,1.2 4.8,2.4 7.7,2.4 4.2,0 6.2,-2.1 6.2,-4.8 0,-2.9 -1.7,-4.3 -5.9,-5.9 -5.8,-2 -8.5,-5.2 -8.5,-9.1 0,-5.2 4.2,-9.4 11,-9.4 3.2,0 6.1,0.9 7.9,2 l -1.5,4.2 c -1.3,-0.8 -3.6,-1.8 -6.5,-1.8 -3.4,0 -5.4,2 -5.4,4.3 0,2.7 1.9,3.9 6.1,5.4 5.6,2.1 8.4,4.9 8.4,9.6 0,5.7 -4.4,9.7 -12,9.7 -3.5,0 -6.7,-0.9 -9,-2.2 z"
     id="path24" />
</svg>
